<svg id="Layer_1" data-name="Layer 1" xmlns="http://www.w3.org/2000/svg" viewBox="0 0 250 250"><defs><style>.cls-1{fill:#32407b;}.cls-2{fill:#72e6ff;}.cls-3{fill:#151965;}</style></defs><title>Artboard 2</title><path class="cls-1" d="M179.59,78.14a61,61,0,0,0-4.6,6.91,5.93,5.93,0,0,0-.73,2.63c0,1.59-.06,3.18-.07,4.77h-.05v8.94a7.29,7.29,0,0,0,0,.81v9.4h.06c0,5.17,0,10.34,0,15.51,0,4.15-2.23,6.25-6.38,6.32-3.6.06-7.21.11-10.81.14a22.68,22.68,0,0,0-12.63,3.9q-9.52,6.36-19,12.79a2.56,2.56,0,0,1-3.33.15c-4.95-3.4-9.95-6.72-14.93-10.06l0,0a5.06,5.06,0,0,1-.6-.36l-.48-.32c-1.26-.85-2.48-1.76-3.79-2.53l-.78-.42-.23-.15a13.87,13.87,0,0,0-3-1.44c-.43-.15-.87-.3-1.32-.42,0,0-4.51-1.61-12.79-1.2q-2.47,0-5,0c-4.06-.08-6.15-2.26-6.15-6.37q0-25.68,0-51.35c0-1.19,0-2.39,0-3.58C73.27,69,75,67,77.83,66.56a27.91,27.91,0,0,1,4.29-.23q22.11,0,44.22,0c9.48,0,19,0,28.45,0h1.31l1.36-2.24c.61-1,1.21-1.93,1.85-2.94h-.05l0-.06H80c-.8,0-1.59,0-2.38.12a10.17,10.17,0,0,0-9.5,8.14,25.89,25.89,0,0,0-.48,6q0,26.43.07,52.84a10.53,10.53,0,0,0,1.69,5.71c2.3,3.6,5.8,4.9,9.87,5,2.23,0,4.46,0,6.68,0h0a46.11,46.11,0,0,1,8.73.74A18.55,18.55,0,0,1,99.87,142q9.57,6.4,19.08,12.87a7.57,7.57,0,0,0,9.28,0q9.54-6.45,19.08-12.86a17.07,17.07,0,0,1,9.23-3c3.82-.08,7.64-.2,11.45-.09a9.66,9.66,0,0,0,1.21,0h.51c5.87-.23,8.25-4.32,9.21-7.37a13.06,13.06,0,0,0,.73-4.29q0-24,0-47.91C179.65,78.9,179.61,78.52,179.59,78.14Z"/><path class="cls-2" d="M147.23,82.78V80.44H88.48a2.34,2.34,0,1,0,0,4.68h56.41A2.35,2.35,0,0,0,147.23,82.78Z"/><path class="cls-2" d="M86.14,100.15a2.35,2.35,0,0,0,2.34,2.34h49.88a2.35,2.35,0,0,0,2.34-2.34V97.81H88.48A2.34,2.34,0,0,0,86.14,100.15Z"/><path class="cls-2" d="M86.14,117.45a2.34,2.34,0,0,0,2.34,2.34h70.08a2.34,2.34,0,0,0,2.34-2.34v-2.34H88.48A2.34,2.34,0,0,0,86.14,117.45Z"/><path class="cls-3" d="M183.57,58.26l-.19-.09-10-6.37h-.07l-.36-.23c-.71-.47-1.06-.26-1.45.4L154.21,79.62h0c-1.58,2.55-3.14,5.08-4.67,7.63a15.6,15.6,0,0,0-1.71,4.16c-.93,3.57-1.72,7.18-2.52,10.78a30.51,30.51,0,0,0-.74,4.34c-.09,1.29.69,1.89,2,1.68a3.54,3.54,0,0,0,1.52-.71q4-3.14,7.84-6.35c2.55-2.11,5.19-4.07,7-7,4.53-7.52,9.23-14.93,13.87-22.39,2.41-3.86,4.81-7.73,7.26-11.57C184.58,59.29,184.58,58.75,183.57,58.26ZM157.94,95c-1.65,1.39-3.29,2.82-5,4.09a2.14,2.14,0,0,1-1.76-.16,5.34,5.34,0,0,1-1.29-1.2c.6-2.51,1.09-4.7,1.68-6.86.05-.2.77-.44,1-.32,1.8,1,3.57,2.14,5.33,3.25A.66.66,0,0,1,157.94,95Z"/><path class="cls-3" d="M189.34,46.13l-7.72-4.7a3,3,0,0,0-4.06,1l-4.84,7.94L183,56.6a3,3,0,0,0,4.06-1l3.3-5.41A3,3,0,0,0,189.34,46.13Z"/><path class="cls-1" d="M32.85,191.54a.27.27,0,0,1,.3.3V194a.27.27,0,0,1-.3.3H25.07v7.35a.27.27,0,0,1-.3.3H22.28a.27.27,0,0,1-.3-.3V183.16a.27.27,0,0,1,.3-.3H34.71c.22,0,.33.13.27.33l-.6,2.18a.32.32,0,0,1-.35.25h-9v5.92Z"/><path class="cls-1" d="M41.68,201.65a.27.27,0,0,1-.3.3H38.89a.27.27,0,0,1-.3-.3V183.16a.27.27,0,0,1,.3-.3h2.49a.27.27,0,0,1,.3.3Z"/><path class="cls-1" d="M61.56,201.65a.27.27,0,0,1-.3.3H58a.38.38,0,0,1-.35-.22,24.64,24.64,0,0,0-1.42-2.81l-5.85-9.64c-.35-.63-.68-1.26-1-1.83-.17-.3-.44-.19-.38.11a27.47,27.47,0,0,1,.24,3.79v10.3a.27.27,0,0,1-.3.3H46.46a.27.27,0,0,1-.3-.3V183.16a.27.27,0,0,1,.3-.3h3.27a.39.39,0,0,1,.36.22,30.94,30.94,0,0,0,1.45,2.81l5.84,9.64c.36.66.69,1.29,1,1.83.13.36.41.22.35-.11a22.88,22.88,0,0,1-.22-3.74V183.16a.28.28,0,0,1,.31-.3h2.48a.27.27,0,0,1,.3.3Z"/><path class="cls-1" d="M72.74,182.86c5.19,0,8.33,3.69,8.33,9.56S77.87,202,72.74,202H66.35a.28.28,0,0,1-.31-.3V183.16a.28.28,0,0,1,.31-.3Zm-3.61,16.33h3.61c3.22,0,5.16-2.48,5.16-6.77s-1.94-6.8-5.16-6.8H69.13Z"/><path class="cls-1" d="M95.52,190.78a.27.27,0,0,1,.3.3v2.13a.27.27,0,0,1-.3.3H87.93v5.68h9.72a.27.27,0,0,1,.3.3v2.16a.27.27,0,0,1-.3.3H85.14a.27.27,0,0,1-.3-.3V183.16a.27.27,0,0,1,.3-.3H97.65c.22,0,.33.13.27.33l-.6,2.18a.32.32,0,0,1-.35.25h-9v5.16Z"/><path class="cls-1" d="M109.34,182.86c4,0,6.34,2.07,6.34,5.52a5.09,5.09,0,0,1-3.63,4.91c-.36.17-.36.3,0,.49a6.41,6.41,0,0,1,2.62,3.17l1.94,4.65a.23.23,0,0,1-.24.35h-2.65a.39.39,0,0,1-.36-.22l-1.47-3.52c-1-2.46-2.27-3.72-5.14-3.72h-2v7.16a.27.27,0,0,1-.3.3H102a.27.27,0,0,1-.3-.3V183.16a.27.27,0,0,1,.3-.3Zm-1.12,8.9c2.82,0,4.32-1.12,4.32-3.19,0-1.81-1.23-2.95-3.2-2.95h-4.58v6.14Z"/><path class="cls-3" d="M134.72,186.11a.32.32,0,0,1-.35.35H129V201.6a.33.33,0,0,1-.36.35h-3.69a.33.33,0,0,1-.35-.35V186.46h-5.41a.32.32,0,0,1-.35-.35v-3.17a.33.33,0,0,1,.35-.36h15.19a.33.33,0,0,1,.35.36Z"/><path class="cls-3" d="M148.85,190.07a.33.33,0,0,1,.35.35v3.14a.33.33,0,0,1-.35.36h-6.7v4.18h8.94a.33.33,0,0,1,.35.35v3.15a.33.33,0,0,1-.35.35h-13a.33.33,0,0,1-.36-.35V182.94a.34.34,0,0,1,.36-.36h13.13c.25,0,.36.17.3.41l-.87,3.17a.38.38,0,0,1-.38.3h-8.12v3.61Z"/><path class="cls-3" d="M166.77,201.6a11.88,11.88,0,0,1-4.1.65c-5.49,0-8.85-3.85-8.85-10s3.36-10,8.85-10a12.23,12.23,0,0,1,4.07.58l1.26.41a.3.3,0,0,1,.21.44l-1,3.08a.31.31,0,0,1-.44.22l-1.28-.41a8.87,8.87,0,0,0-2.84-.35c-2.73,0-4.4,2.21-4.4,6s1.67,6.07,4.4,6.07a8.19,8.19,0,0,0,2.81-.41l1.29-.38a.3.3,0,0,1,.44.21l1.09,3a.3.3,0,0,1-.22.44Z"/><path class="cls-3" d="M187.78,201.6a.33.33,0,0,1-.36.35h-3.69a.33.33,0,0,1-.35-.35v-7.68h-7.1v7.68a.33.33,0,0,1-.36.35h-3.71a.33.33,0,0,1-.36-.35V182.94a.34.34,0,0,1,.36-.36h3.71a.34.34,0,0,1,.36.36v7.13h7.1v-7.13a.33.33,0,0,1,.35-.36h3.69a.34.34,0,0,1,.36.36Z"/><path class="cls-3" d="M208.07,201.6a.33.33,0,0,1-.35.35h-4.86a.38.38,0,0,1-.41-.27c-.41-1-.93-2-1.37-2.9l-3.88-7.86c-.35-.71-.65-1.34-1-2-.22-.41-.49-.25-.47.11a31.24,31.24,0,0,1,.3,5v7.65a.33.33,0,0,1-.35.35H192a.33.33,0,0,1-.36-.35V182.94a.34.34,0,0,1,.36-.36h4.86a.39.39,0,0,1,.41.28c.43.95,1,2,1.39,2.89l3.9,7.92c.33.71.63,1.34,1,2,.19.43.49.27.44-.11a27.32,27.32,0,0,1-.3-4.92v-7.7a.33.33,0,0,1,.35-.36h3.69a.33.33,0,0,1,.35.36Z"/><path class="cls-3" d="M228.75,192.25c0,6.12-3.3,10-8.68,10s-8.71-3.88-8.71-10,3.3-10,8.71-10S228.75,186.11,228.75,192.25Zm-12.94,0c0,3.75,1.61,6.07,4.26,6.07s4.23-2.32,4.23-6.07-1.58-6-4.23-6S215.81,188.43,215.81,192.25Z"/></svg>